<svg version="1.2" baseProfile="tiny" xmlns="http://www.w3.org/2000/svg" width="24" height="24" viewBox="0 0 24 24"><path fill-rule="evenodd" clip-rule="evenodd" d="M12,20.019c-4.418,0-8-3.59-8-8.019s3.582-8.019,8-8.019c4.419,0,8,3.59,8,8.019 S16.419,20.019,12,20.019z M8.961,7.893c-0.633,0-1.147,0.514-1.147,1.148c0,0.635,0.514,1.148,1.147,1.148 c0.634,0,1.147-0.513,1.147-1.148C10.109,8.407,9.595,7.893,8.961,7.893z M15.071,7.893c-0.634,0-1.148,0.514-1.148,1.148 c0,0.635,0.515,1.148,1.148,1.148c0.633,0,1.146-0.513,1.146-1.148C16.218,8.407,15.704,7.893,15.071,7.893z M17.155,12.42 l-1.034,1.002l-1.034-1.035l-1.035,1.035l-1.002-1.035l-1.034,1.035l-1.066-1.035l-1.002,1.035l-1.066-1.035l-1.002,1.035 l-0.97-0.97v0.194l0.033,0.162l0.064,0.354l0.097,0.421L7.2,13.875l0.161,0.421l0.259,0.485l0.355,0.517l0.227,0.292l0.291,0.29 l0.194,0.162l0.323,0.259l0.259,0.194l0.453,0.258l0.388,0.162l0.42,0.162l0.549,0.129l0.42,0.064l0.485,0.032l0.517-0.032 l0.452-0.064l0.389-0.097l0.355-0.097l0.485-0.195l0.678-0.387l0.421-0.324l0.291-0.259l0.258-0.258l0.421-0.518l0.193-0.323 l0.227-0.421l0.097-0.226C16.768,14.103,17.27,12.828,17.155,12.42z"/></svg>
